Coordinates
version=1
nRows=4
nColumns=114
inDegrees=yes

Units are S.I. units (second, meters, Newtons, ...)
If the header above contains a line with 'inDegrees', this indicates whether rotational values are in degrees (yes) or radians (no).

endheader 
time	pelvis_tilt	pelvis_list	pelvis_rotation	pelvis_tx	pelvis_ty	pelvis_tz	hip_flexion_l	hip_adduction_l	hip_rotation_l	hip_flexion_r	hip_adduction_r	hip_rotation_r	knee_angle_l	knee_angle_r	ankle_angle_l	ankle_angle_r	subtalar_angle_l	subtalar_angle_r	mtp_angle_l	mtp_angle_r	lumbar_extension	lumbar_bending	lumbar_rotation	arm_flex_l	arm_add_l	arm_rot_l	arm_flex_r	arm_add_r	arm_rot_r	elbow_flex_l	elbow_flex_r	pro_sup_l	pro_sup_r	addbrev_l/activation	addlong_l/activation	addmagDist_l/activation	addmagIsch_l/activation	addmagMid_l/activation	addmagProx_l/activation	bflh_l/activation	bfsh_l/activation	edl_l/activation	ehl_l/activation	fdl_l/activation	fhl_l/activation	gaslat_l/activation	gasmed_l/activation	glmax1_l/activation	glmax2_l/activation	glmax3_l/activation	glmed1_l/activation	glmed2_l/activation	glmed3_l/activation	glmin1_l/activation	glmin2_l/activation	glmin3_l/activation	grac_l/activation	iliacus_l/activation	perbrev_l/activation	perlong_l/activation	piri_l/activation	psoas_l/activation	recfem_l/activation	sart_l/activation	semimem_l/activation	semiten_l/activation	soleus_l/activation	tfl_l/activation	tibant_l/activation	tibpost_l/activation	vasint_l/activation	vaslat_l/activation	vasmed_l/activation	addbrev_r/activation	addlong_r/activation	addmagDist_r/activation	addmagIsch_r/activation	addmagMid_r/activation	addmagProx_r/activation	bflh_r/activation	bfsh_r/activation	edl_r/activation	ehl_r/activation	fdl_r/activation	fhl_r/activation	gaslat_r/activation	gasmed_r/activation	glmax1_r/activation	glmax2_r/activation	glmax3_r/activation	glmed1_r/activation	glmed2_r/activation	glmed3_r/activation	glmin1_r/activation	glmin2_r/activation	glmin3_r/activation	grac_r/activation	iliacus_r/activation	perbrev_r/activation	perlong_r/activation	piri_r/activation	psoas_r/activation	recfem_r/activation	sart_r/activation	semimem_r/activation	semiten_r/activation	soleus_r/activation	tfl_r/activation	tibant_r/activation	tibpost_r/activation	vasint_r/activation	vaslat_r/activation	vasmed_r/activation	
          0.00000000	          6.14609392	         -3.96113967	         -0.49043743	          0.22821562	          0.90788954	         -0.26616084	         -3.11503431	         -4.61129932	         -8.66524981	         -1.26157667	          2.48219993	        -12.12872609	          6.78034828	          7.14007852	         10.61853345	          5.24525564	         -4.52052864	        -13.00110163	        -35.07232085	        -42.69344495	        -11.43856979	          4.19405740	         -1.36953099	          2.82610746	         -7.14961478	         18.48312529	          5.24682330	         -6.57623408	         15.15653893	         22.67414384	         20.67294261	         69.39650832	         82.15943422	          0.13493241	          0.33133609	          0.07268800	          0.01429985	          0.12739921	          0.17818655	          0.05089539	          0.02099556	          0.23635596	          0.07201426	          0.02565237	          0.01557312	          0.01453575	          0.01416595	          0.07528906	          0.02676814	          0.15317618	          0.01074455	          0.01697634	          0.15153987	          0.01171989	          0.01588395	          0.09156963	          0.09361847	          0.01530415	          0.05008431	          0.06722202	          0.20750853	          0.08325254	          0.26555007	          0.03839906	          0.01194218	          0.01456323	          0.01378008	          0.01332246	          0.49808912	          0.01495781	          0.03586798	          0.04220612	          0.03713457	          0.04532194	          0.08747472	          0.07874383	          0.10357617	          0.05865502	          0.01951034	          0.06453193	          0.01955147	          0.20645941	          0.03314471	          0.02836167	          0.01599075	          0.01509895	          0.01470531	          0.01696988	          0.03676937	          0.05309848	          0.04937150	          0.01436341	          0.01239234	          0.03499575	          0.01748461	          0.01483634	          0.02532299	          0.01778855	          0.05022152	          0.04396056	          0.01223942	          0.01432876	          0.01195395	          0.01503613	          0.11792108	          0.07484062	          0.01441786	          0.01612503	          0.55104759	          0.01536797	          0.05532443	          0.09733177	          0.06392200	
          0.01000000	          5.76355987	         -3.42332153	         -0.26939272	          0.23137207	          0.90842467	         -0.26834737	         -2.91489122	         -3.95868396	         -9.45005957	         -1.42695199	          1.79757798	        -12.46269092	          6.62682308	          6.57752235	         10.69841620	          5.80915349	         -3.83727909	        -12.04138859	        -31.11372621	        -37.87746145	        -10.77297736	          3.56138153	         -1.43668781	          2.95812816	         -7.22344236	         18.36663265	          4.71147167	         -6.29010037	         14.16007470	         22.09796451	         20.81621534	         69.52205093	         82.03785849	          0.13298409	          0.27709639	          0.06872316	          0.02251336	          0.11019657	          0.15060716	          0.04345134	          0.03534528	          0.25948349	          0.13142565	          0.02397159	          0.01578927	          0.01303971	          0.01249814	          0.06402371	          0.02366393	          0.12851099	          0.01210761	          0.01865165	          0.12711039	          0.01438038	          0.02284288	          0.07804815	          0.08208617	          0.03661625	          0.06015442	          0.05909590	          0.17341433	          0.08534243	          0.22218842	          0.04772972	          0.01357887	          0.01775354	          0.01180018	          0.01836762	          0.50300245	          0.01446057	          0.04614252	          0.05273494	          0.04752883	          0.06354569	          0.09844381	          0.06939150	          0.08770443	          0.06007616	          0.03391837	          0.05465265	          0.03267056	          0.23806553	          0.14977212	          0.02642984	          0.01604382	          0.01306162	          0.01257613	          0.02143322	          0.03286426	          0.04635062	          0.05081759	          0.02023190	          0.01571192	          0.05154939	          0.02961797	          0.02377616	          0.03745864	          0.04020807	          0.04752075	          0.03813017	          0.01705571	          0.02547900	          0.06000521	          0.02778567	          0.09865812	          0.06369138	          0.01214674	          0.03218552	          0.56947347	          0.01490789	          0.05963938	          0.09492676	          0.06770230	
          0.02000000	          5.43820822	         -2.90782926	         -0.05155916	          0.23443956	          0.90910790	         -0.27051414	         -2.79340382	         -3.32302534	        -10.21284334	         -1.65391253	          1.14278810	        -12.79241719	          6.44655884	          6.00210940	         10.75053321	          6.32669549	         -3.18016671	        -11.09811143	        -27.60138017	        -33.60481817	        -10.19465836	          2.94457057	         -1.49663138	          3.09689181	         -7.31307865	         18.31356825	          4.19585904	         -6.01747524	         13.19664597	         21.55940258	         20.97359700	         69.65664508	         81.92265295	          0.11907900	          0.24300833	          0.06927176	          0.02905096	          0.10268386	          0.12843944	          0.03740866	          0.03574698	          0.28039835	          0.15271723	          0.02354570	          0.01462828	          0.01145869	          0.01090467	          0.05421870	          0.02059186	          0.10783145	          0.01243937	          0.01730732	          0.10654458	          0.01509766	          0.02197739	          0.06638425	          0.07481323	          0.03678092	          0.06194462	          0.05316068	          0.14647333	          0.07542238	          0.20667427	          0.04420470	          0.01523086	          0.01968874	          0.01026155	          0.01748899	          0.52051303	          0.01322678	          0.04942966	          0.05883157	          0.05170135	          0.07050400	          0.12295073	          0.06266821	          0.07475497	          0.06155711	          0.04543185	          0.04707661	          0.03292859	          0.26208535	          0.16163690	          0.02801304	          0.01472269	          0.01121711	          0.01070732	          0.02541311	          0.03003913	          0.04273949	          0.04409742	          0.02308641	          0.01972470	          0.04602203	          0.03133996	          0.02905892	          0.04129694	          0.03982992	          0.04408158	          0.03243891	          0.02529517	          0.03187553	          0.06407214	          0.03070504	          0.08301890	          0.05450476	          0.01024279	          0.03297918	          0.57351090	          0.01385594	          0.06184124	          0.09678469	          0.07024996	
          0.03000000	          5.20260144	         -2.43365598	          0.16332401	          0.23736615	          0.90989239	         -0.27266049	         -2.78754816	         -2.72303675	        -10.92676461	         -1.97101261	          0.54173368	        -13.10480019	          6.22575542	          5.41753439	         10.76076375	          6.76813360	         -2.56999352	        -10.19573319	        -24.48502123	        -29.81443833	         -9.75611654	          2.36396062	         -1.54417449	          3.24832271	         -7.42239781	         18.36191047	          3.71717126	         -5.77025612	         12.29557424	         21.08025939	         21.15034133	         69.80257810	         81.81940940	          0.11854600	          0.20332281	          0.05969618	          0.02562314	          0.09283662	          0.11960039	          0.03173441	          0.03539417	          0.29220925	          0.16450016	          0.02115616	          0.01420765	          0.01113314	          0.01074934	          0.04629602	          0.01805216	          0.09048602	          0.01208727	          0.01766298	          0.09039293	          0.01494183	          0.02357408	          0.06220654	          0.07076329	          0.04852553	          0.06854833	          0.05248062	          0.12303115	          0.08785140	          0.19389733	          0.04981282	          0.01340696	          0.01783809	          0.01030221	          0.02179458	          0.52881905	          0.01278580	          0.05303053	          0.06855734	          0.05670748	          0.07818454	          0.13222692	          0.06187603	          0.06518659	          0.06637514	          0.05267206	          0.04146589	          0.03274335	          0.27004996	          0.16519435	          0.02478569	          0.01431136	          0.01076753	          0.01044921	          0.02768612	          0.02882220	          0.04464015	          0.03861632	          0.02381358	          0.02122274	          0.04173919	          0.03150646	          0.03042987	          0.04402838	          0.03981630	          0.04903064	          0.03153152	          0.02733781	          0.03477178	          0.06007134	          0.03182544	          0.06973473	          0.04743506	          0.01018949	          0.03258205	          0.56718159	          0.01315260	          0.06248909	          0.09716262	          0.07109230	
